<!-- icon666.com - MILLIONS vector ICONS FREE --><svg viewBox="0 0 512 512.00539" xmlns="http://www.w3.org/2000/svg"><path d="m448.003906 96.003906v224h-384v-224h42.664063l21.335937-21.332031h21.332032l21.332031 21.332031zm0 0" fill="#fff"></path><path d="m64.003906 96.003906v224h-53.335937v-256c.035156-11.765625 9.566406-21.296875 21.335937-21.332031h32zm0 0" fill="#fff"></path><path d="m501.335938 64.003906v256h-53.332032v-277.332031h32c11.765625.035156 21.296875 9.566406 21.332032 21.332031zm0 0" fill="#fff"></path><path d="m341.335938 480.003906v21.335938h-170.667969v-21.335938c.035156-11.765625 9.566406-21.296875 21.335937-21.332031h128c11.765625.035156 21.296875 9.566406 21.332032 21.332031zm0 0" fill="#58abfb"></path><path d="m192.003906 394.671875h128v64h-128zm0 0" fill="#fff"></path><path d="m501.335938 320.003906v53.335938c-.035157 11.765625-9.566407 21.296875-21.332032 21.332031h-448c-11.769531-.035156-21.300781-9.566406-21.335937-21.332031v-53.335938zm0 0" fill="#58abfb"></path><path d="m448.003906 42.671875v53.332031h-277.335937l-21.332031-21.332031h-21.332032l-21.335937 21.332031h-42.664063v-64c.382813-12.121094 10.488282-21.65625 22.613282-21.332031h338.773437c12.121094-.324219 22.230469 9.210937 22.613281 21.332031zm0 0" fill="#58abfb"></path><g fill="#107be8"><path d="m394.667969 42.671875h21.335937v21.332031h-21.335937zm0 0"></path><path d="m266.667969 42.671875h106.667969v21.332031h-106.667969zm0 0"></path><path d="m480.003906 32.003906h-21.335937c-.378907-18.015625-15.261719-32.324218-33.277344-31.99999975h-338.773437c-18.015626-.32421825-32.902344 13.98437475-33.28125 31.99999975h-21.332032c-17.675781 0-31.99999975 14.328125-31.99999975 32v309.335938c0 17.671875 14.32421875 32 31.99999975 32h149.332032v44.628906c-12.738282 4.503906-21.277344 16.523438-21.332032 30.035156v10.667969h-21.335937v21.332031h234.667969v-21.332031h-21.332032v-10.667969c-.058594-13.511718-8.59375-25.53125-21.335937-30.035156v-44.628906h149.335937c17.671875 0 32-14.328125 32-32v-309.335938c0-17.671875-14.328125-32-32-32zm0 21.335938c5.890625 0 10.664063 4.773437 10.664063 10.664062v245.335938h-32v-256zm-405.335937-21.335938c.378906-6.230468 5.710937-10.992187 11.949219-10.664062h338.773437c6.234375-.328125 11.566406 4.433594 11.945313 10.664062v53.335938h-262.25l-18.207032-18.210938c-2-2-4.714844-3.121094-7.542968-3.125h-21.332032c-2.828125.003906-5.542968 1.125-7.542968 3.125l-18.207032 18.210938h-27.585937zm32 74.667969c2.832031 0 5.542969-1.125 7.542969-3.125l18.207031-18.207031h12.503906l18.207031 18.207031c2 2 4.710938 3.125 7.539063 3.125h266.667969v202.667969h-362.667969v-202.667969zm-74.664063-53.332031h21.332032v256h-32v-245.335938c0-5.890625 4.777343-10.664062 10.667968-10.664062zm277.332032 394.664062h-106.667969v-42.664062h106.667969zm-128 42.667969v-10.667969c0-5.890625 4.777343-10.664062 10.667968-10.664062h128c5.890625 0 10.664063 4.773437 10.664063 10.664062v10.667969zm298.667968-106.667969h-448c-5.890625 0-10.667968-4.773437-10.667968-10.664062v-42.667969h469.332031v42.667969c0 5.890625-4.773438 10.664062-10.664063 10.664062zm0 0"></path><path d="m128.003906 288.003906h53.332032v-21.332031h-53.332032c-5.890625 0-10.667968-4.777344-10.667968-10.667969v-95.25c0-5.894531 4.777343-10.667968 10.667968-10.667968h53.332032v-21.332032h-53.332032c-17.675781 0-32 14.324219-32 32v95.25c0 17.675782 14.324219 32 32 32zm0 0"></path><path d="m298.667969 256.003906v-32c0-17.671875-14.324219-32-32-32h-32c-5.890625 0-10.664063-4.773437-10.664063-10.664062v-21.335938c0-5.890625 4.773438-10.664062 10.664063-10.664062h64v-21.335938h-64c-17.671875 0-32 14.328125-32 32v21.335938c0 17.671875 14.328125 32 32 32h32c5.890625 0 10.667969 4.773437 10.667969 10.664062v32c0 5.890625-4.777344 10.667969-10.667969 10.667969h-64v21.332031h64c17.675781 0 32-14.324218 32-32zm0 0"></path><path d="m416.003906 256.003906v-32c0-17.671875-14.328125-32-32-32h-32c-5.890625 0-10.667968-4.773437-10.667968-10.664062v-21.335938c0-5.890625 4.777343-10.664062 10.667968-10.664062h64v-21.335938h-64c-17.675781 0-32 14.328125-32 32v21.335938c0 17.671875 14.324219 32 32 32h32c5.890625 0 10.664063 4.773437 10.664063 10.664062v32c0 5.890625-4.773438 10.667969-10.664063 10.667969h-64v21.332031h64c17.671875 0 32-14.324218 32-32zm0 0"></path></g></svg>