<!-- icon666.com - MILLIONS vector ICONS FREE --><svg viewBox="0 0 512 512" xmlns="http://www.w3.org/2000/svg"><g id="Layer_2" data-name="Layer 2"><g id="Document_File_Format" data-name="Document File Format"><g id="JS"><g id="File"><path d="m456 127v360a25 25 0 0 1 -25 25h-350a25 25 0 0 1 -25-25v-462a25 25 0 0 1 25-25h248z" fill="#41a5ee"></path><rect fill="#07c" height="200" rx="25" width="512" y="240"></rect><path d="m456 126.96h-126.96v-126.96z" fill="#d8efff"></path></g><g fill="#d8efff"><path d="m186 411.57v-21.25a51.31 51.31 0 0 0 7.83-.51 10.93 10.93 0 0 0 5.09-2 8.05 8.05 0 0 0 2.72-4.25 25.26 25.26 0 0 0 .86-7.22v-106.04h30.5v107.44q0 11.22-2.8 18.78a20.44 20.44 0 0 1 -9.78 11.31q-7 3.74-19.55 3.74z"></path><path d="m289.92 410q-12.93 0-21.59-4.59a29.3 29.3 0 0 1 -13.09-14.19q-4.43-9.61-4.94-24.91l26-3.91a62.12 62.12 0 0 0 1.61 14.28c1 3.63 2.32 6.23 4.08 7.82a9.16 9.16 0 0 0 6.37 2.38q4.77 0 6.21-3.23a16.51 16.51 0 0 0 1.45-6.8 24.64 24.64 0 0 0 -4.02-14.33 64.39 64.39 0 0 0 -11-11.81l-12-10.37a66.61 66.61 0 0 1 -13.17-15q-5.36-8.42-5.36-20.83 0-17.5 10.37-26.78t28.23-9.26q11 0 17.76 3.74a26.06 26.06 0 0 1 10.2 9.77 40.61 40.61 0 0 1 4.76 12.75 81.85 81.85 0 0 1 1.45 12.84l-26.19 3.23a102.64 102.64 0 0 0 -.76-10.62 14.68 14.68 0 0 0 -2.46-7q-1.83-2.49-5.83-2.48a6.57 6.57 0 0 0 -6.2 3.57 14.79 14.79 0 0 0 -2 7.14q0 7.65 3.66 12.49a70.15 70.15 0 0 0 9.69 10.1l11.39 10a77.7 77.7 0 0 1 15.21 17.34q6.21 9.69 6.21 24a35.52 35.52 0 0 1 -4.42 17.6 32.34 32.34 0 0 1 -12.54 12.51q-8 4.55-19.08 4.55z"></path></g></g></g></g></svg>