<!-- icon666.com - MILLIONS vector ICONS FREE --><svg version="1.1" id="Capa_1" xmlns="http://www.w3.org/2000/svg" xmlns:xlink="http://www.w3.org/1999/xlink" x="0px" y="0px" viewBox="0 0 490.667 490.667" style="enable-background:new 0 0 490.667 490.667;" xml:space="preserve"><linearGradient id="SVGID_1_" gradientUnits="userSpaceOnUse" x1="-64.0273" y1="612.1419" x2="-59.0456" y2="607.1602" gradientTransform="matrix(21.3333 0 0 -21.3333 1430.1112 13315.2227)"><stop offset="0" style="stop-color:#369CDC"></stop><stop offset="1" style="stop-color:#AA56D0"></stop></linearGradient><path style="fill: rgb(7, 135, 233);" d="M101.035,256h37.632c5.888,0,10.667,4.8,10.667,10.667c0,5.888,4.779,10.667,10.667,10.667 s10.667-4.779,10.667-10.667c0-17.643-14.357-32-32-32h-37.632C80.619,234.667,64,251.285,64,271.701 c0,14.101,7.829,26.795,20.459,33.131l56.171,28.075c5.376,2.688,8.704,8.064,8.704,14.059c0,8.661-7.04,15.701-15.701,15.701H96 c-5.888,0-10.667-4.8-10.667-10.667c0-5.888-4.779-10.667-10.667-10.667S64,346.112,64,352c0,17.643,14.357,32,32,32h37.632 c20.416,0,37.035-16.619,37.035-37.035c0-14.101-7.829-26.795-20.48-33.131L94.016,285.76c-5.355-2.688-8.683-8.064-8.683-14.059 C85.333,263.04,92.373,256,101.035,256z" fill="url(#SVGID_1_)"></path><linearGradient id="SVGID_2_" gradientUnits="userSpaceOnUse" x1="-53.39" y1="611.5045" x2="-47.683" y2="605.7975" gradientTransform="matrix(21.3333 0 0 -21.3333 1430.1112 13315.2227)"><stop offset="0" style="stop-color:#369CDC"></stop><stop offset="1" style="stop-color:#AA56D0"></stop></linearGradient><path style="fill: rgb(22, 135, 192);" d="M341.333,362.667V245.333c0-5.888-4.779-10.667-10.667-10.667 c-5.888,0-10.667,4.779-10.667,10.667v128c0,5.888,4.779,10.667,10.667,10.667H416c5.888,0,10.667-4.779,10.667-10.667 s-4.779-10.667-10.667-10.667H341.333z" fill="url(#SVGID_2_)"></path><linearGradient id="SVGID_3_" gradientUnits="userSpaceOnUse" x1="-57.8034" y1="611.918" x2="-52.6825" y2="606.7971" gradientTransform="matrix(21.3333 0 0 -21.3333 1430.1112 13315.2227)"><stop offset="0" style="stop-color:#369CDC"></stop><stop offset="1" style="stop-color:#AA56D0"></stop></linearGradient><path style="fill: rgb(38, 127, 171);" d="M245.333,234.667C215.936,234.667,192,258.581,192,288v42.667 C192,360.085,215.936,384,245.333,384c10.859,0,20.928-3.285,29.376-8.875l5.76,5.76c2.069,2.069,4.8,3.115,7.531,3.115 c2.731,0,5.461-1.045,7.552-3.115c4.16-4.16,4.16-10.923,0-15.083l-5.76-5.76c5.568-8.448,8.875-18.517,8.875-29.376V288 C298.667,258.581,274.731,234.667,245.333,234.667z M268.715,338.965c-4.16-4.16-10.923-4.16-15.083,0 c-4.16,4.16-4.16,10.923,0,15.083l5.419,5.419c-4.181,1.984-8.789,3.2-13.717,3.2c-17.643,0-32-14.357-32-32V288 c0-17.643,14.357-32,32-32s32,14.357,32,32v42.667c0,4.928-1.216,9.536-3.2,13.717L268.715,338.965z" fill="url(#SVGID_3_)"></path><linearGradient id="SVGID_4_" gradientUnits="userSpaceOnUse" x1="-62.8905" y1="620.0051" x2="-45.683" y2="602.7975" gradientTransform="matrix(21.3333 0 0 -21.3333 1430.1112 13315.2227)"><stop offset="0" style="stop-color:#369CDC"></stop><stop offset="1" style="stop-color:#AA56D0"></stop></linearGradient><path style="fill: rgb(7, 106, 213);" d="M458.667,192h-32V10.667C426.667,4.779,421.888,0,416,0H181.333 c-0.469,0-0.896,0.213-1.365,0.277s-0.875,0.128-1.344,0.256c-1.792,0.491-3.499,1.259-4.843,2.581L67.115,109.781 c-1.323,1.344-2.091,3.051-2.581,4.843c-0.128,0.469-0.213,0.875-0.256,1.344c-0.064,0.448-0.277,0.896-0.277,1.365V192H32 c-5.888,0-10.667,4.779-10.667,10.667V416c0,5.888,4.779,10.667,10.667,10.667h32V480c0,5.888,4.779,10.667,10.667,10.667H416 c5.888,0,10.667-4.779,10.667-10.667v-53.333h32c5.888,0,10.667-4.779,10.667-10.667V202.667 C469.333,196.779,464.555,192,458.667,192z M170.667,36.416v70.251h-70.251L170.667,36.416z M85.333,128h96 c5.888,0,10.667-4.779,10.667-10.667v-96h213.333V192h-320V128z M405.333,469.333h-320v-42.667h320V469.333z M448,405.333H42.667 v-192H448V405.333z" fill="url(#SVGID_4_)"></path></svg>